<svg id="visual" viewBox="0 0 960 300" width="960" height="300" xmlns="http://www.w3.org/2000/svg" xmlns:xlink="http://www.w3.org/1999/xlink" version="1.1"><rect x="0" y="0" width="960" height="300" fill="#141649"></rect><path d="M0 125L137 125L137 138L274 138L274 171L411 171L411 163L549 163L549 140L686 140L686 124L823 124L823 141L960 141L960 176L960 301L960 301L823 301L823 301L686 301L686 301L549 301L549 301L411 301L411 301L274 301L274 301L137 301L137 301L0 301Z" fill="#6262ff"></path><path d="M0 187L137 187L137 214L274 214L274 214L411 214L411 183L549 183L549 205L686 205L686 177L823 177L823 201L960 201L960 215L960 301L960 301L823 301L823 301L686 301L686 301L549 301L549 301L411 301L411 301L274 301L274 301L137 301L137 301L0 301Z" fill="#4443ff"></path><path d="M0 248L137 248L137 249L274 249L274 273L411 273L411 271L549 271L549 239L686 239L686 269L823 269L823 247L960 247L960 236L960 301L960 301L823 301L823 301L686 301L686 301L549 301L549 301L411 301L411 301L274 301L274 301L137 301L137 301L0 301Z" fill="#1616ff"></path></svg>